<?xml version="1.0" standalone="no"?>
<!DOCTYPE svg PUBLIC "-//W3C//DTD SVG 20010904//EN"
 "http://www.w3.org/TR/2001/REC-SVG-20010904/DTD/svg10.dtd">
<svg version="1.0" xmlns="http://www.w3.org/2000/svg"
 width="138.000000pt" height="161.000000pt" viewBox="0 0 138.000000 161.000000"
 preserveAspectRatio="xMidYMid meet">
<metadata>
Created by potrace 1.16, written by Peter Selinger 2001-2019
</metadata>
<g transform="translate(0.000000,161.000000) scale(0.100000,-0.100000)"
fill="#000000" stroke="none">
<path d="M307 1489 l-118 -71 3 -90 3 -90 140 -82 140 -83 3 -438 c1 -294 6
-442 13 -451 6 -7 40 -29 76 -49 l64 -35 115 67 114 67 0 309 c0 291 1 309 18
302 9 -4 24 -9 33 -12 9 -3 67 24 128 59 l111 63 0 90 0 90 -316 185 c-174
102 -338 197 -363 212 l-47 27 -117 -70z m-71 -108 c5 -5 146 -87 314 -183
168 -96 315 -181 326 -188 17 -10 23 -27 28 -78 4 -35 5 -67 2 -70 -3 -2 -65
29 -137 71 -73 42 -136 74 -141 71 -4 -3 -8 -198 -8 -435 0 -236 -2 -429 -5
-429 -2 0 -29 12 -60 27 l-55 27 0 446 0 446 -145 83 -145 83 0 69 c0 67 5 79
26 60z"/>
</g>
</svg>
